<?xml version="1.0" encoding="UTF-8"?>
<svg version="1.1" xmlns="http://www.w3.org/2000/svg" width="460" height="460">
<path d="M0 0 C0.67423173 -0.00297112 1.34846347 -0.00594224 2.04312646 -0.0090034 C4.3014178 -0.01767186 6.559656 -0.01919709 8.81796265 -0.02069092 C10.43777581 -0.02532052 12.05758788 -0.03034537 13.67739868 -0.03573608 C18.07851893 -0.04885106 22.47962393 -0.05530364 26.88076067 -0.05974674 C29.6327119 -0.06267978 32.38465898 -0.06678509 35.13660812 -0.07125092 C43.75327365 -0.08492536 52.36992967 -0.09459148 60.98660529 -0.09845281 C70.92071419 -0.10292931 80.85468521 -0.12045849 90.7887522 -0.1494534 C98.47470333 -0.1711047 106.16061578 -0.18115898 113.84659708 -0.18249393 C118.43335484 -0.18353976 123.01998298 -0.18940002 127.60670853 -0.20731354 C131.92578371 -0.22385324 136.24463267 -0.22592124 140.56372833 -0.21717453 C142.14306878 -0.21640722 143.72242168 -0.2207062 145.30173111 -0.23063278 C159.76770545 -0.3161742 170.22997653 1.72014594 181.06942749 11.80059814 C187.62180508 18.8892317 191.39746903 27.43249429 191.42471313 37.04115295 C191.43042328 38.24817368 191.43613342 39.4551944 191.4420166 40.6987915 C191.44326186 42.03326406 191.44438698 43.36773673 191.44540405 44.70220947 C191.45003432 46.11014434 191.45505926 47.51807796 191.46044922 48.92601013 C191.47355485 52.74843495 191.48001455 56.57084222 191.48445988 60.39328599 C191.48739348 62.78272312 191.49149882 65.17215547 191.49596405 67.56159019 C191.50963394 75.0414998 191.51930317 82.52139848 191.52316594 90.00131971 C191.52764604 98.62860589 191.54519379 107.25573359 191.57416654 115.88297158 C191.59579861 122.55657042 191.60587103 129.23012471 191.60720706 135.90375823 C191.60825397 139.88736073 191.61413738 143.87081414 191.63202667 147.85437965 C191.64853391 151.60301679 191.65065013 155.3513932 191.64188766 159.10005379 C191.64075312 161.12522404 191.65444982 163.15038574 191.66864014 165.17550659 C191.63443874 172.64003911 191.49753345 178.36835148 186.48739624 184.24981689 C179.37577376 190.22357978 173.62070331 192.75047503 164.22177124 192.49200439 C154.15708526 191.28745421 148.56705456 183.70357213 142.65927124 176.20294189 C141.88039551 175.22103882 141.88039551 175.22103882 141.08578491 174.21929932 C139.48214121 172.19547422 137.88311946 170.1680564 136.28427124 168.14044189 C135.31439468 166.91634447 134.344349 165.69238102 133.37411499 164.46856689 C129.06157662 159.01624328 124.80762298 153.53200767 120.65927124 147.95294189 C116.93177925 142.94033985 113.03703502 138.11510684 109.03427124 133.32012939 C107.28427124 131.14044189 107.28427124 131.14044189 106.28427124 129.14044189 C106.28284622 130.04087219 106.2814212 130.94130249 106.279953 131.86901855 C106.26204131 140.40089946 106.22018732 148.93226717 106.15218067 157.46390152 C106.11805115 161.84898824 106.09282273 166.23373176 106.0887146 170.61895752 C106.08440125 174.85979193 106.05569047 179.099854 106.01083946 183.34044647 C105.99796062 184.94931266 105.99352226 186.55827175 105.99811745 188.16718292 C106.02436317 200.15913315 104.68034132 211.50196462 96.01473999 220.61309814 C88.03857264 227.65301108 80.34038298 230.44354749 69.7696228 230.43096924 C68.94746277 230.43768646 68.12530273 230.44440369 67.27822876 230.45132446 C64.57705535 230.47022436 61.87613154 230.47422479 59.17489624 230.47637939 C57.28311056 230.48281359 55.39132587 230.4895424 53.49954224 230.49655151 C49.5387644 230.50850479 45.57807365 230.51223442 41.61727905 230.51104736 C36.56597146 230.51084445 31.51522821 230.53812682 26.46405411 230.57259178 C22.55701177 230.59493704 18.65010352 230.59888255 14.74300385 230.59782791 C12.88204761 230.60017316 11.02108708 230.60893535 9.1601944 230.62449265 C-5.27257266 230.73384447 -16.79542844 229.60744673 -27.71572876 219.14044189 C-32.55401378 213.90681063 -35.63831085 208.94975614 -37.71572876 202.14044189 C-37.90089648 201.54262154 -38.08606421 200.94480118 -38.27684307 200.32886505 C-38.87576678 197.34244161 -38.85209582 194.48424763 -38.86289978 191.43817139 C-38.86657647 190.76535079 -38.87025316 190.09253018 -38.87404126 189.39932108 C-38.88505043 187.14570253 -38.88891728 184.89213015 -38.89273071 182.63848877 C-38.89899766 181.02192031 -38.90564467 179.40535329 -38.91264343 177.78878784 C-38.93366599 172.47893269 -38.94404697 167.16907733 -38.95401001 161.85919189 C-38.95805882 160.0281218 -38.96217578 158.19705185 -38.96636009 156.36598206 C-38.98541106 147.75892588 -38.99963996 139.15187825 -39.00797206 130.54480505 C-39.017732 120.62765535 -39.04401936 110.71072958 -39.08447295 100.79365873 C-39.11470289 93.11786831 -39.12944761 85.44214181 -39.13275307 77.76629305 C-39.13509652 73.18724914 -39.14396406 68.60844447 -39.16921425 64.02946472 C-39.19261941 59.71526073 -39.19667863 55.40145137 -39.18645287 51.08720016 C-39.18596034 49.51191769 -39.19219643 47.93661497 -39.20600891 46.36139297 C-39.3184592 32.76591673 -37.51746916 21.19301424 -27.71572876 11.14044189 C-22.47585631 6.30581138 -17.52822907 3.21883182 -10.71572876 1.14044189 C-10.11818598 0.95513538 -9.5206432 0.76982887 -8.90499306 0.57890701 C-5.9134029 -0.02024766 -3.0511734 0.00751674 0 0 Z M-4.71572876 34.14044189 C-7.06320524 37.43310255 -6.97362959 40.51285584 -6.98988342 44.47221375 C-6.99985855 45.77468048 -7.00983368 47.07714722 -7.02011108 48.41908264 C-7.02100685 49.8606261 -7.02167044 51.30216972 -7.02212524 52.74371338 C-7.02974747 54.26326912 -7.03817508 55.782821 -7.04734802 57.30236816 C-7.06929095 61.42837594 -7.07809138 65.55430961 -7.08317447 69.68036914 C-7.08681762 72.25807814 -7.0930574 74.83576772 -7.10017586 77.41346931 C-7.12466754 86.40588357 -7.13772209 95.39824014 -7.14126587 104.39068604 C-7.14490318 112.77392263 -7.17481306 121.15679357 -7.21667045 129.53991836 C-7.25134898 136.7374826 -7.26681387 143.93492548 -7.2675119 151.13257271 C-7.26830542 155.43142966 -7.2770781 159.72991396 -7.30550957 164.02868462 C-7.33164948 168.07128649 -7.33391878 172.1132056 -7.31785393 176.15585327 C-7.31603628 177.63893686 -7.32275884 179.12205935 -7.33867264 180.60505867 C-7.35908137 182.63050028 -7.3456104 184.65619864 -7.33045959 186.6816864 C-7.33247092 187.81490546 -7.33448225 188.94812452 -7.33655453 190.11568356 C-6.5146396 194.12017911 -4.87015961 195.62294707 -1.71572876 198.14044189 C1.75844968 198.8675212 1.75844968 198.8675212 5.6289978 198.72393799 C6.7103299 198.72744263 6.7103299 198.72744263 7.81350708 198.73101807 C10.18471882 198.7326268 12.55396226 198.69867264 14.92489624 198.66387939 C16.57444558 198.65708806 18.22400463 198.65236701 19.87356567 198.64962769 C23.32358113 198.63896502 26.77294607 198.61230152 30.2227478 198.5725708 C34.65386937 198.52154453 39.08461829 198.49653314 43.51599503 198.48163414 C47.73568081 198.46687883 51.95527829 198.44163823 56.17489624 198.41387939 C56.98404732 198.40896862 57.79319839 198.40405785 58.6268692 198.39899826 C60.90371952 198.38279304 63.18036674 198.35939326 65.4571228 198.33331299 C66.75442322 198.32045258 68.05172363 198.30759216 69.38833618 198.29434204 C72.17787055 198.46970432 72.17787055 198.46970432 73.28427124 197.14044189 C73.38836907 194.07795745 73.42787937 191.03728265 73.42611694 187.97418213 C73.43132858 186.53020302 73.43132858 186.53020302 73.43664551 185.05705261 C73.44401875 182.95792155 73.44935573 180.85878261 73.45293617 178.75964165 C73.4600835 175.4346111 73.47573889 172.1097297 73.49427795 168.78474426 C73.54681583 159.32772929 73.59469464 149.87079287 73.61019897 140.41363525 C73.62029512 134.63515864 73.64966772 128.85705222 73.69151878 123.078722 C73.70381677 120.87761298 73.70895225 118.67645162 73.70672035 116.47530937 C73.70436076 113.38729455 73.72658693 110.30033529 73.75424194 107.21246338 C73.74433983 105.85535248 73.74433983 105.85535248 73.73423767 104.4708252 C73.8343708 97.636335 75.57435872 92.49651361 79.88973999 87.15216064 C85.35311571 82.57911282 90.77259596 80.51009192 97.84677124 79.76544189 C102.02258814 80.22098556 105.47186609 81.42682474 109.28427124 83.14044189 C109.91075562 83.36602783 110.53723999 83.59161377 111.18270874 83.82403564 C114.41507524 85.8487708 116.45126144 88.82662152 118.72177124 91.82794189 C119.18647827 92.42800049 119.6511853 93.02805908 120.12997437 93.64630127 C122.51332803 96.74100456 124.79572746 99.87757021 127.00692749 103.09747314 C128.13421265 104.60374268 128.13421265 104.60374268 129.28427124 106.14044189 C129.94427124 106.14044189 130.60427124 106.14044189 131.28427124 106.14044189 C131.53177124 106.86231689 131.77927124 107.58419189 132.03427124 108.32794189 C133.41733615 111.43983794 135.07550041 113.55302463 137.28427124 116.14044189 C140.77411073 120.3046465 144.16914388 124.51375548 147.47177124 128.82794189 C147.89128052 129.37474609 148.31078979 129.92155029 148.74301147 130.48492432 C151.61538566 134.23971 154.44372798 138.02524789 157.22567749 141.84747314 C157.57501343 142.27415283 157.92434937 142.70083252 158.28427124 143.14044189 C158.61427124 143.14044189 158.94427124 143.14044189 159.28427124 143.14044189 C159.33095174 128.9631645 159.36610779 114.78589898 159.38789558 100.60856056 C159.39835051 94.02606168 159.41254083 87.44361427 159.43515015 80.86114502 C159.45681765 74.51343655 159.46882697 68.16577771 159.47402573 61.81803513 C159.47773246 59.39143466 159.48497035 56.96483703 159.49573135 54.5382576 C159.51016528 51.14989515 159.51225258 47.76174009 159.51132202 44.37335205 C159.52210785 42.85529213 159.52210785 42.85529213 159.53311157 41.30656433 C159.52898758 39.92672615 159.52898758 39.92672615 159.52478027 38.51901245 C159.52662386 37.71705256 159.52846745 36.91509266 159.5303669 36.08883095 C159.456643 33.90419748 159.456643 33.90419748 157.28427124 32.14044189 C154.45178165 31.83481651 154.45178165 31.83481651 151.0723877 31.88647461 C150.10625591 31.88179464 150.10625591 31.88179464 149.1206063 31.87702012 C146.95257594 31.869014 144.78482345 31.87537381 142.61679077 31.88165283 C141.06635371 31.87894407 139.51591794 31.87538379 137.96548462 31.87103271 C133.74642885 31.86189124 129.52747057 31.86546057 125.30841303 31.87179089 C120.89800911 31.87684361 116.48761371 31.8721613 112.07720947 31.86901855 C104.66753639 31.86537602 97.25790313 31.87018473 89.84823608 31.87969971 C81.27883175 31.89057679 72.70952264 31.88706527 64.14012063 31.8760469 C56.78890261 31.86697263 49.43771327 31.86568967 42.08649147 31.87092423 C37.69331736 31.8740442 33.300188 31.87445272 28.90701675 31.86785126 C24.77514692 31.86207668 20.64339984 31.86607675 16.51154327 31.87763977 C14.99419483 31.8802861 13.47683608 31.87952172 11.95949173 31.87511444 C9.88956202 31.86965621 7.8200266 31.87649626 5.75012207 31.88647461 C4.01182979 31.88760569 4.01182979 31.88760569 2.23842049 31.88875961 C-0.70582734 32.13959833 -2.32756995 32.42778095 -4.71572876 34.14044189 Z " fill="#25E2B5" transform="translate(153.71572875976563,114.85955810546875)"/>
<path d="M0 0 C12.24047955 0.72740555 20.38023601 4.09355332 28.984375 13.0703125 C37.18571394 22.84883201 38.59454214 32.91245045 38.50170898 45.35644531 C38.50550092 46.76541684 38.51100812 48.17438463 38.51808167 49.58334351 C38.53193469 53.3765911 38.52094123 57.16937999 38.50437045 60.96260166 C38.49042901 64.94713686 38.4969899 68.93164788 38.50050354 72.91619873 C38.50319727 79.60045695 38.48979818 86.28453472 38.46655273 92.96875 C38.43990461 100.68458008 38.43821281 108.40010951 38.4499411 116.1159699 C38.46073461 123.56067688 38.45452229 131.00527565 38.44038582 138.44997406 C38.43464403 141.60930709 38.4346943 144.76856045 38.43945122 147.92789459 C38.44423784 151.64794827 38.43405017 155.36767418 38.41249657 159.08766556 C38.40431783 161.09603563 38.41076112 163.10444873 38.41769409 165.11282349 C38.35668799 172.53708256 38.185892 178.26003982 33.203125 184.109375 C26.09150252 190.08313788 20.33643207 192.61003313 10.9375 192.3515625 C0.87281402 191.14701232 -4.71721668 183.56313024 -10.625 176.0625 C-11.14425049 175.40789795 -11.66350098 174.7532959 -12.19848633 174.07885742 C-13.80213003 172.05503232 -15.40115178 170.02761451 -17 168 C-17.96987656 166.77590258 -18.93992224 165.55193913 -19.91015625 164.328125 C-24.22269462 158.87580139 -28.47664826 153.39156577 -32.625 147.8125 C-36.35249199 142.79989796 -40.24723622 137.97466495 -44.25 133.1796875 C-46 131 -46 131 -47 129 C-47.00142502 129.9004303 -47.00285004 130.8008606 -47.00431824 131.72857666 C-47.02222993 140.26045756 -47.06408392 148.79182528 -47.13209057 157.32345963 C-47.16622009 161.70854634 -47.19144851 166.09328987 -47.19555664 170.47851562 C-47.19986999 174.71935004 -47.22858077 178.95941211 -47.27343178 183.20000458 C-47.28631062 184.80887077 -47.29074898 186.41782985 -47.28615379 188.02674103 C-47.25990807 200.01869126 -48.60392992 211.36152272 -57.26953125 220.47265625 C-64.76249954 227.08608876 -71.84311248 230.41456684 -82 230 C-81.505 229.01 -81.505 229.01 -81 228 C-80.91644276 226.27903498 -80.89888943 224.5547359 -80.91113281 222.83178711 C-80.91570496 221.70623917 -80.9202771 220.58069122 -80.92498779 219.42103577 C-80.93891571 217.52459572 -80.93891571 217.52459572 -80.953125 215.58984375 C-80.96451013 212.7459383 -80.97136097 209.90202433 -80.97851562 207.05810547 C-80.98089108 206.27829724 -80.98326653 205.49848902 -80.98571396 204.69505024 C-81.03022549 188.38206107 -80.93124349 172.06883994 -80.8161087 155.75631142 C-80.77619085 150.04594098 -80.74415643 144.33573847 -80.72900391 138.62524414 C-80.71385484 133.00666946 -80.67951468 127.38851279 -80.63169098 121.77012444 C-80.61694213 119.65275628 -80.60896275 117.53532897 -80.60811615 115.41790962 C-80.60574768 112.47679554 -80.5787043 109.53685781 -80.54589844 106.59594727 C-80.55344398 105.30953339 -80.55344398 105.30953339 -80.56114197 103.99713135 C-80.44384713 97.18838471 -78.5264564 92.05663354 -74.17578125 86.79296875 C-68.36272562 81.78423528 -63.07176229 79.42860656 -55.4375 78.625 C-48.0723529 79.42847059 -40.99131543 82.35153488 -36.24609375 88.1796875 C-35.30143279 89.40497996 -34.36538836 90.63695755 -33.4375 91.875 C-32.49879818 93.10163924 -31.5599978 94.32820305 -30.62109375 95.5546875 C-29.95762939 96.43398926 -29.95762939 96.43398926 -29.28076172 97.33105469 C-28.11037257 98.85617482 -26.88764882 100.34076386 -25.66015625 101.8203125 C-24 104 -24 104 -24 106 C-23.34 106 -22.68 106 -22 106 C-21.02075721 107.40435684 -20.05040674 108.8160178 -19.13330078 110.26171875 C-17.25254233 113.14646674 -15.08080895 115.8087166 -12.9375 118.5 C-11.96995963 119.72258309 -11.00251472 120.94524173 -10.03515625 122.16796875 C-9.53902832 122.79364746 -9.04290039 123.41932617 -8.53173828 124.06396484 C-6.97271121 126.03449157 -5.42075977 128.01038617 -3.87109375 129.98828125 C-3.36908447 130.62894531 -2.8670752 131.26960937 -2.34985352 131.9296875 C-1.38003407 133.16776854 -0.41046305 134.40604423 0.55883789 135.64453125 C2.67380271 138.41364999 2.67380271 138.41364999 5 141 C5.02334064 127.08347801 5.04091848 113.16695905 5.05181217 99.25042152 C5.05703954 92.78901111 5.06413457 86.32761381 5.07543945 79.86621094 C5.08627348 73.63521571 5.09227794 67.40423313 5.09487724 61.17322922 C5.09673056 58.79129207 5.10034939 56.40935565 5.10573006 54.02742386 C5.11294729 50.70137261 5.11399065 47.37537418 5.11352539 44.04931641 C5.1189183 42.5593087 5.1189183 42.5593087 5.12442017 41.03919983 C5.12235817 39.68460411 5.12235817 39.68460411 5.12025452 38.30264282 C5.12117631 37.51543161 5.1220981 36.72822041 5.12304783 35.91715431 C5.11931996 33.91446778 5.11931996 33.91446778 4 32 C4.66 32 5.32 32 6 32 C5.97722961 27.41556125 5.89995665 22.8336252 5.8125 18.25 C5.80669922 16.94804687 5.80089844 15.64609375 5.79492188 14.3046875 C5.75141602 12.42910156 5.75141602 12.42910156 5.70703125 10.515625 C5.6913208 9.36352539 5.67561035 8.21142578 5.65942383 7.02441406 C4.81407132 3.14724751 3.25964455 2.1141188 0 0 Z " fill="#61F253" transform="translate(307,115)"/>
</svg>
